<?xml version="1.0" encoding="UTF-8" ?>
<!DOCTYPE svg PUBLIC "-//W3C//DTD SVG 1.1//EN" "http://www.w3.org/Graphics/SVG/1.1/DTD/svg11.dtd">
<svg width="225pt" height="225pt" viewBox="0 0 225 225" version="1.1" xmlns="http://www.w3.org/2000/svg">
<g id="#000000ff">
<path fill="#000000" opacity="1.00" d=" M 68.39 0.00 L 155.66 0.00 C 173.86 0.68 193.27 5.15 206.52 18.50 C 219.65 31.52 224.13 50.53 225.00 68.43 L 225.00 155.68 C 224.31 173.87 219.85 193.26 206.52 206.50 C 193.27 219.85 173.85 224.32 155.64 225.00 L 68.44 225.00 C 50.54 224.13 31.52 219.65 18.50 206.52 C 5.16 193.28 0.69 173.88 0.00 155.69 L 0.00 68.42 C 0.87 50.51 5.36 31.48 18.51 18.47 C 31.52 5.35 50.51 0.88 68.39 0.00 M 59.23 77.31 C 52.25 89.13 45.49 101.08 38.61 112.96 C 45.46 124.84 52.20 136.79 59.19 148.59 C 72.72 148.52 86.26 148.51 99.80 148.60 C 104.19 141.43 108.30 134.09 112.46 126.79 C 116.54 134.18 120.80 141.48 125.07 148.76 C 138.63 148.67 152.19 148.67 165.75 148.76 C 172.73 136.97 179.66 125.10 186.28 113.12 C 179.73 101.14 172.64 89.44 165.89 77.56 C 152.29 77.55 138.70 77.62 125.10 77.53 C 120.71 84.70 116.78 92.15 112.37 99.31 C 108.49 91.80 104.06 84.59 99.79 77.30 C 86.27 77.39 72.75 77.38 59.23 77.31 Z" />
<path fill="#000000" opacity="1.00" d=" M 68.04 92.89 C 75.71 92.96 83.38 92.94 91.05 92.90 C 95.02 99.53 98.77 106.31 102.64 113.00 C 98.77 119.70 94.97 126.44 91.02 133.09 C 83.38 133.08 75.73 133.03 68.09 133.12 C 64.09 126.48 60.33 119.70 56.42 113.00 C 60.32 106.31 64.05 99.52 68.04 92.89 Z" />
<path fill="#000000" opacity="1.00" d=" M 134.02 92.97 C 141.66 93.03 149.30 93.01 156.94 92.98 C 160.88 99.66 164.68 106.42 168.55 113.14 C 164.69 119.84 160.90 126.58 156.92 133.22 C 149.27 133.14 141.62 133.18 133.97 133.19 C 130.03 126.56 126.25 119.83 122.36 113.17 C 126.26 106.44 130.02 99.63 134.02 92.97 Z" />
</g>
<g id="#ffffffff">
<path fill="#ffffff" opacity="1.00" d=" M 59.23 77.31 C 72.75 77.38 86.27 77.39 99.79 77.30 C 104.06 84.59 108.49 91.80 112.37 99.31 C 116.78 92.15 120.71 84.70 125.10 77.53 C 138.70 77.62 152.29 77.55 165.89 77.56 C 172.64 89.44 179.73 101.14 186.28 113.12 C 179.66 125.10 172.73 136.97 165.75 148.76 C 152.19 148.67 138.63 148.67 125.07 148.76 C 120.80 141.48 116.54 134.18 112.46 126.79 C 108.30 134.09 104.19 141.43 99.80 148.60 C 86.26 148.51 72.72 148.52 59.19 148.59 C 52.20 136.79 45.46 124.84 38.61 112.96 C 45.49 101.08 52.25 89.13 59.23 77.31 M 68.04 92.89 C 64.05 99.52 60.32 106.31 56.42 113.00 C 60.33 119.70 64.09 126.48 68.09 133.12 C 75.73 133.03 83.38 133.08 91.02 133.09 C 94.97 126.44 98.77 119.70 102.64 113.00 C 98.77 106.31 95.02 99.53 91.05 92.90 C 83.38 92.94 75.71 92.96 68.04 92.89 M 134.02 92.97 C 130.02 99.63 126.26 106.44 122.36 113.17 C 126.25 119.83 130.03 126.56 133.97 133.19 C 141.62 133.18 149.27 133.14 156.92 133.22 C 160.90 126.58 164.69 119.84 168.55 113.14 C 164.68 106.42 160.88 99.66 156.94 92.98 C 149.30 93.01 141.66 93.03 134.02 92.97 Z" />
</g>
</svg>